<svg id="svg" version="1.1" xmlns="http://www.w3.org/2000/svg" xmlns:xlink="http://www.w3.org/1999/xlink" width="400" height="371.35999999999996" viewBox="0, 0, 400,371.35999999999996"><g id="svgg"><path id="path0" d="M63.833 185.410 L 63.833 253.833 84.292 253.832 C 96.557 253.831,105.518 253.764,106.667 253.663 C 120.745 252.437,131.126 245.809,137.230 234.149 C 139.745 229.344,141.224 224.212,141.827 218.191 C 142.063 215.834,142.065 155.444,141.828 152.917 C 140.336 136.936,131.058 123.984,117.889 119.495 C 110.717 117.050,111.484 117.109,85.792 117.043 L 63.833 116.987 63.833 185.410 M170.818 117.259 C 167.432 117.872,164.640 119.357,162.000 121.948 C 160.946 122.983,160.003 124.000,159.906 124.207 C 159.808 124.414,159.385 125.226,158.964 126.011 C 158.058 127.705,157.433 129.592,157.174 131.421 C 157.036 132.394,156.999 147.099,157.035 186.333 L 157.085 239.917 157.549 241.500 C 159.596 248.483,165.067 253.074,172.250 253.835 C 173.133 253.929,184.388 253.995,199.625 253.997 L 225.500 254.000 225.500 241.833 L 225.500 229.667 203.417 229.667 L 181.333 229.667 181.333 213.583 L 181.333 197.500 194.750 197.500 L 208.167 197.500 208.167 185.417 L 208.167 173.333 194.750 173.333 L 181.333 173.333 181.333 157.250 L 181.333 141.167 203.417 141.167 L 225.500 141.167 225.500 129.083 L 225.500 117.000 198.792 117.015 C 176.909 117.027,171.855 117.071,170.818 117.259 M240.761 118.375 C 240.967 119.131,241.436 120.837,241.803 122.167 C 243.337 127.732,243.706 129.122,244.010 130.483 C 244.186 131.272,244.583 132.817,244.893 133.917 C 245.772 137.042,247.933 145.133,248.210 146.333 C 248.348 146.929,248.761 148.504,249.130 149.833 C 250.899 156.216,251.652 158.993,251.841 159.833 C 252.108 161.011,252.966 164.258,253.825 167.333 C 254.196 168.662,254.843 171.100,255.263 172.750 C 256.177 176.344,256.243 176.589,258.160 183.583 C 258.989 186.608,259.807 189.721,259.978 190.500 C 260.149 191.279,260.791 193.717,261.403 195.917 C 263.331 202.835,263.655 204.044,263.994 205.583 C 264.176 206.408,264.663 208.283,265.076 209.750 C 265.868 212.560,267.660 219.268,268.371 222.083 C 268.603 223.000,269.320 225.662,269.965 228.000 C 271.392 233.169,271.926 235.210,272.078 236.071 C 272.141 236.431,272.551 237.444,272.988 238.321 C 282.790 257.997,299.338 259.335,309.193 241.250 C 311.282 237.415,311.369 237.185,312.630 232.083 C 312.902 230.983,313.807 227.571,314.641 224.500 C 315.474 221.429,316.524 217.492,316.974 215.750 C 317.423 214.008,318.319 210.633,318.963 208.250 C 319.607 205.867,320.556 202.304,321.071 200.333 C 321.585 198.362,322.343 195.550,322.754 194.083 C 323.166 192.617,323.658 190.779,323.848 190.000 C 324.768 186.225,324.996 185.369,326.947 178.333 C 327.367 176.821,327.825 175.096,327.965 174.500 C 328.444 172.459,329.293 169.247,330.585 164.583 C 331.297 162.017,332.017 159.289,332.187 158.521 C 332.356 157.754,333.066 155.054,333.765 152.521 C 334.463 149.989,335.296 146.904,335.616 145.667 C 337.173 139.643,337.730 137.541,338.417 135.083 C 338.827 133.617,339.400 131.479,339.689 130.333 C 340.341 127.750,341.784 122.294,342.573 119.430 C 342.900 118.246,343.167 117.214,343.167 117.137 C 343.167 117.061,337.152 117.017,329.800 117.041 L 316.433 117.083 316.215 118.000 C 315.762 119.898,314.136 126.186,313.413 128.833 C 313.001 130.346,312.504 132.258,312.309 133.083 C 311.720 135.578,310.130 141.643,308.660 147.000 C 308.396 147.962,308.066 149.306,307.927 149.985 C 307.700 151.092,306.473 155.807,305.668 158.667 C 305.223 160.247,304.109 164.552,303.426 167.333 C 303.099 168.662,302.578 170.688,302.268 171.833 C 301.957 172.979,301.347 175.229,300.912 176.833 C 300.477 178.438,300.062 180.088,299.989 180.500 C 299.867 181.189,299.306 183.350,297.758 189.083 C 297.136 191.389,296.297 194.647,295.484 197.917 C 293.607 205.463,291.667 212.090,291.667 210.952 C 291.667 210.835,290.954 208.116,290.083 204.911 C 289.213 201.706,288.385 198.521,288.244 197.833 C 288.103 197.146,287.771 195.796,287.507 194.833 C 287.018 193.056,286.385 190.732,285.178 186.279 C 284.810 184.920,284.390 183.234,284.245 182.533 C 284.100 181.832,283.349 178.939,282.577 176.103 C 281.804 173.268,280.932 169.966,280.640 168.765 C 280.348 167.565,279.527 164.408,278.817 161.750 C 276.671 153.718,276.300 152.294,276.072 151.217 C 275.952 150.649,275.217 147.836,274.439 144.967 C 273.660 142.098,272.822 138.925,272.576 137.917 C 272.331 136.908,271.389 133.308,270.484 129.917 C 269.579 126.525,268.681 123.075,268.489 122.250 C 268.193 120.973,267.507 118.280,267.227 117.292 C 267.149 117.017,266.364 117.000,253.765 117.000 L 240.385 117.000 240.761 118.375 M105.771 142.502 C 111.123 143.173,115.961 146.607,117.807 151.047 C 118.905 153.686,118.847 151.639,118.795 186.417 L 118.748 217.917 118.377 219.083 C 117.073 223.184,114.389 226.053,110.159 227.869 C 107.149 229.162,107.103 229.167,97.885 229.167 L 89.667 229.167 89.667 185.750 L 89.667 142.333 97.046 142.333 C 101.105 142.333,105.031 142.409,105.771 142.502 " stroke="none" fill="#f4f4f4" fill-rule="evenodd"></path><path id="path1" d="M45.667 0.113 C 35.936 1.704,28.029 6.262,21.962 13.777 C 19.646 16.645,16.643 22.210,16.016 24.797 C 15.933 25.138,15.638 26.279,15.359 27.333 C 15.081 28.387,14.718 30.075,14.552 31.083 C 14.082 33.935,14.080 337.378,14.550 340.250 C 17.105 355.876,28.283 367.664,43.583 370.866 L 45.417 371.250 200.083 371.250 L 354.750 371.250 356.500 370.864 C 371.939 367.454,382.897 355.866,385.450 340.250 C 385.918 337.390,385.918 33.944,385.450 31.083 C 382.901 15.492,372.116 4.055,356.583 0.472 L 354.917 0.088 200.500 0.066 C 115.571 0.054,45.896 0.075,45.667 0.113 M109.500 117.225 C 127.606 120.258,138.965 132.054,141.782 150.750 C 142.247 153.835,142.248 217.157,141.783 220.250 C 139.168 237.648,128.414 249.634,112.417 252.982 C 107.853 253.937,109.052 253.893,85.458 253.955 L 63.667 254.013 63.667 185.417 L 63.667 116.821 85.708 116.876 C 105.808 116.927,107.904 116.957,109.500 117.225 M225.626 129.125 L 225.669 141.333 203.584 141.333 L 181.500 141.333 181.500 157.250 L 181.500 173.167 194.917 173.167 L 208.333 173.167 208.333 185.417 L 208.333 197.667 194.917 197.667 L 181.500 197.667 181.500 213.583 L 181.500 229.500 203.584 229.500 L 225.669 229.500 225.626 241.792 L 225.583 254.083 198.833 254.083 C 170.480 254.083,171.135 254.100,168.667 253.305 C 162.357 251.271,157.733 245.743,157.001 239.360 C 156.768 237.319,156.773 133.391,157.007 131.524 C 157.815 125.078,162.464 119.601,168.833 117.592 C 171.126 116.869,170.957 116.873,198.833 116.895 L 225.583 116.917 225.626 129.125 M268.014 119.917 C 268.442 121.567,269.259 124.642,269.828 126.750 C 270.398 128.858,271.155 131.783,271.511 133.250 C 271.867 134.717,272.460 137.004,272.829 138.333 C 273.197 139.662,274.131 143.225,274.903 146.250 C 275.676 149.275,276.796 153.550,277.394 155.750 C 277.991 157.950,278.973 161.700,279.576 164.083 C 280.179 166.467,280.970 169.504,281.335 170.833 C 281.700 172.162,282.561 175.463,283.249 178.167 C 283.938 180.871,284.952 184.733,285.503 186.750 C 286.055 188.767,286.770 191.504,287.093 192.833 C 287.759 195.571,289.903 203.696,290.259 204.833 C 290.388 205.246,290.791 206.810,291.153 208.309 C 291.516 209.809,291.840 211.062,291.872 211.095 C 291.905 211.127,292.245 209.863,292.627 208.285 C 293.010 206.708,293.818 203.579,294.424 201.333 C 295.029 199.088,296.114 194.925,296.835 192.083 C 297.556 189.242,298.605 185.229,299.166 183.167 C 299.728 181.104,300.434 178.367,300.737 177.083 C 301.039 175.800,301.999 172.088,302.869 168.833 C 303.740 165.579,304.687 161.942,304.973 160.750 C 305.259 159.558,306.062 156.483,306.757 153.917 C 307.452 151.350,308.311 148.043,308.667 146.568 C 309.023 145.093,309.949 141.530,310.726 138.651 C 311.502 135.772,312.556 131.729,313.068 129.667 C 313.579 127.604,314.548 123.892,315.219 121.417 L 316.439 116.917 329.886 116.874 C 340.589 116.840,343.333 116.874,343.333 117.041 C 343.333 117.251,342.427 120.671,341.180 125.167 C 340.811 126.496,339.909 129.908,339.174 132.750 C 338.439 135.592,337.498 139.117,337.084 140.583 C 336.669 142.050,336.023 144.487,335.648 146.000 C 335.274 147.512,334.264 151.321,333.404 154.464 C 332.544 157.607,331.539 161.394,331.171 162.881 C 330.802 164.367,330.125 166.933,329.666 168.583 C 329.207 170.233,328.341 173.496,327.742 175.833 C 327.142 178.171,326.361 181.133,326.005 182.417 C 324.279 188.649,323.818 190.359,323.515 191.667 C 323.183 193.097,322.081 197.222,320.842 201.667 C 320.471 202.996,319.910 205.133,319.594 206.417 C 319.034 208.692,318.201 211.819,316.530 217.917 C 316.078 219.567,315.548 221.606,315.352 222.448 C 315.155 223.290,314.503 225.765,313.902 227.948 C 313.302 230.131,312.478 233.154,312.073 234.667 C 311.265 237.682,309.990 240.544,308.323 243.083 C 307.842 243.817,307.189 244.812,306.873 245.294 C 305.766 246.982,302.450 250.231,300.544 251.495 C 292.309 256.955,283.261 254.059,275.823 243.583 C 273.045 239.671,272.241 237.463,268.911 224.583 C 268.223 221.925,267.325 218.550,266.915 217.083 C 266.504 215.617,265.637 212.354,264.988 209.833 C 264.338 207.313,263.216 203.112,262.493 200.500 C 261.770 197.887,260.993 194.963,260.765 194.000 C 260.359 192.290,260.084 191.257,258.027 183.750 C 257.475 181.733,256.755 178.996,256.428 177.667 C 256.101 176.338,255.654 174.612,255.436 173.833 C 254.320 169.859,253.262 165.921,252.524 163.000 C 252.073 161.212,251.388 158.625,251.002 157.250 C 250.616 155.875,249.675 152.350,248.912 149.417 C 248.149 146.483,247.105 142.583,246.593 140.750 C 246.081 138.917,245.293 135.954,244.842 134.167 C 244.391 132.379,243.837 130.242,243.612 129.417 C 241.495 121.679,240.970 119.720,240.675 118.452 C 240.487 117.646,240.333 116.952,240.333 116.909 C 240.333 116.866,246.386 116.851,253.784 116.874 L 267.234 116.917 268.014 119.917 M89.833 185.738 L 89.833 229.000 97.979 229.000 C 106.079 229.000,106.133 228.998,107.738 228.591 C 113.010 227.253,117.029 223.501,118.277 218.750 C 118.752 216.943,118.754 154.737,118.279 152.917 C 117.258 149.001,114.730 146.096,110.583 144.076 C 107.666 142.654,107.388 142.620,98.042 142.543 L 89.833 142.475 89.833 185.738 " stroke="none" fill="#040404" fill-rule="evenodd"></path><path id="path2" d="M63.749 185.417 C 63.749 223.092,63.768 238.479,63.792 219.611 C 63.815 200.744,63.815 169.919,63.792 151.111 C 63.768 132.304,63.749 147.742,63.749 185.417 M116.487 119.012 C 116.983 119.188,117.419 119.303,117.454 119.268 C 117.532 119.190,116.014 118.662,115.762 118.679 C 115.664 118.686,115.990 118.835,116.487 119.012 M165.125 119.262 C 164.502 119.600,164.540 119.741,165.167 119.417 C 165.442 119.274,165.667 119.123,165.667 119.079 C 165.667 118.972,165.649 118.978,165.125 119.262 M161.830 121.958 L 160.417 123.417 161.875 122.004 C 163.229 120.691,163.409 120.500,163.288 120.500 C 163.263 120.500,162.607 121.156,161.830 121.958 M268.190 121.167 C 268.190 121.304,268.255 121.567,268.333 121.750 C 268.424 121.960,268.477 121.991,268.477 121.833 C 268.477 121.696,268.412 121.433,268.333 121.250 C 268.243 121.040,268.190 121.009,268.190 121.167 M124.083 122.420 C 124.267 122.569,124.567 122.765,124.750 122.855 L 125.083 123.018 124.750 122.747 C 124.567 122.598,124.267 122.402,124.083 122.312 L 123.750 122.148 124.083 122.420 M268.499 122.264 C 268.498 122.574,269.553 126.502,269.620 126.436 C 269.658 126.398,269.449 125.441,269.157 124.308 C 268.661 122.388,268.501 121.890,268.499 122.264 M314.929 122.595 C 314.867 122.839,314.849 123.071,314.889 123.111 C 314.928 123.150,315.010 122.982,315.071 122.738 C 315.133 122.494,315.151 122.262,315.111 122.223 C 315.072 122.183,314.990 122.351,314.929 122.595 M341.095 124.762 C 341.034 125.006,341.016 125.238,341.055 125.277 C 341.094 125.317,341.177 125.149,341.238 124.905 C 341.299 124.661,341.317 124.429,341.278 124.389 C 341.239 124.350,341.157 124.518,341.095 124.762 M159.095 125.442 C 158.857 125.868,158.688 126.244,158.721 126.276 C 158.753 126.309,158.984 125.960,159.233 125.501 C 159.483 125.042,159.652 124.667,159.608 124.667 C 159.564 124.667,159.333 125.016,159.095 125.442 M242.610 125.496 C 242.665 125.815,242.810 126.378,242.933 126.746 C 243.145 127.385,243.151 127.390,243.056 126.837 C 243.002 126.518,242.856 125.956,242.734 125.587 C 242.521 124.948,242.516 124.944,242.610 125.496 M129.160 126.208 C 129.850 126.944,130.000 127.077,130.000 126.951 C 130.000 126.925,129.644 126.568,129.208 126.160 L 128.417 125.417 129.160 126.208 M340.598 126.598 C 340.445 127.209,340.350 127.739,340.388 127.777 C 340.426 127.814,340.582 127.346,340.735 126.735 C 340.889 126.125,340.983 125.594,340.946 125.557 C 340.908 125.519,340.751 125.988,340.598 126.598 M243.277 127.996 C 243.332 128.315,243.477 128.878,243.599 129.246 C 243.812 129.885,243.818 129.890,243.723 129.337 C 243.668 129.018,243.523 128.456,243.401 128.087 C 243.188 127.448,243.182 127.444,243.277 127.996 M132.476 129.625 C 132.659 129.877,133.046 130.346,133.335 130.667 C 133.624 130.987,133.506 130.781,133.072 130.208 C 132.303 129.191,131.816 128.715,132.476 129.625 M311.515 135.765 C 311.316 136.559,311.184 137.239,311.221 137.277 C 311.259 137.314,311.452 136.695,311.652 135.902 C 311.851 135.108,311.983 134.427,311.945 134.390 C 311.908 134.352,311.714 134.971,311.515 135.765 M137.202 136.744 C 137.587 137.519,137.928 138.127,137.961 138.094 C 138.035 138.020,136.694 135.333,136.583 135.333 C 136.539 135.333,136.817 135.968,137.202 136.744 M272.667 138.228 C 272.667 138.520,273.385 141.171,273.447 141.108 C 273.520 141.035,272.856 138.301,272.736 138.181 C 272.698 138.142,272.667 138.164,272.667 138.228 M310.762 138.595 C 310.701 138.839,310.683 139.071,310.722 139.111 C 310.761 139.150,310.843 138.982,310.905 138.738 C 310.966 138.494,310.984 138.262,310.945 138.223 C 310.906 138.183,310.823 138.351,310.762 138.595 M337.030 140.114 C 336.822 140.899,336.682 141.571,336.718 141.607 C 336.755 141.643,336.956 141.033,337.167 140.250 C 337.377 139.467,337.517 138.795,337.479 138.757 C 337.440 138.718,337.238 139.329,337.030 140.114 M246.771 141.167 C 246.829 141.487,246.942 141.900,247.022 142.083 C 247.123 142.312,247.135 142.234,247.063 141.833 C 247.004 141.512,246.891 141.100,246.811 140.917 C 246.711 140.688,246.698 140.766,246.771 141.167 M181.333 141.292 C 181.333 141.405,196.748 141.404,217.667 141.290 C 222.021 141.266,215.627 141.229,203.458 141.207 C 191.290 141.185,181.333 141.223,181.333 141.292 M93.458 142.458 C 95.590 142.485,99.077 142.485,101.208 142.458 C 103.340 142.432,101.596 142.410,97.333 142.410 C 93.071 142.410,91.327 142.432,93.458 142.458 M247.277 142.996 C 247.332 143.315,247.477 143.878,247.599 144.246 C 247.812 144.885,247.818 144.890,247.723 144.337 C 247.668 144.018,247.523 143.456,247.401 143.087 C 247.188 142.448,247.182 142.444,247.277 142.996 M111.715 144.658 C 112.335 145.020,113.079 145.485,113.368 145.691 C 113.657 145.897,113.839 145.978,113.773 145.870 C 113.625 145.631,110.997 144.000,110.760 144.000 C 110.666 144.000,111.096 144.296,111.715 144.658 M140.190 144.167 C 140.190 144.304,140.255 144.567,140.333 144.750 C 140.424 144.960,140.477 144.991,140.477 144.833 C 140.477 144.696,140.412 144.433,140.333 144.250 C 140.243 144.040,140.190 144.009,140.190 144.167 M140.671 145.847 C 140.695 146.280,141.480 149.640,141.486 149.333 C 141.494 148.871,140.886 145.997,140.752 145.863 C 140.705 145.816,140.668 145.809,140.671 145.847 M307.265 152.099 C 307.021 153.076,306.851 153.906,306.888 153.944 C 306.925 153.981,307.156 153.212,307.401 152.235 C 307.646 151.257,307.816 150.427,307.779 150.390 C 307.741 150.352,307.510 151.121,307.265 152.099 M276.195 151.750 C 276.192 151.933,276.255 152.233,276.333 152.417 C 276.516 152.841,276.516 152.403,276.333 151.833 C 276.226 151.498,276.199 151.482,276.195 151.750 M141.875 153.417 C 141.877 153.783,141.911 153.914,141.951 153.706 C 141.991 153.499,141.990 153.199,141.948 153.040 C 141.906 152.880,141.874 153.050,141.875 153.417 M333.265 154.265 C 333.111 154.875,333.017 155.406,333.054 155.443 C 333.092 155.481,333.249 155.012,333.402 154.402 C 333.555 153.791,333.650 153.261,333.612 153.223 C 333.574 153.186,333.418 153.654,333.265 154.265 M276.857 154.333 C 276.857 154.471,276.921 154.733,277.000 154.917 C 277.090 155.127,277.143 155.158,277.143 155.000 C 277.143 154.862,277.079 154.600,277.000 154.417 C 276.910 154.207,276.857 154.176,276.857 154.333 M118.723 155.667 C 118.723 156.354,118.752 156.635,118.788 156.292 C 118.824 155.948,118.824 155.385,118.788 155.042 C 118.752 154.698,118.723 154.979,118.723 155.667 M277.195 155.500 C 277.203 155.933,277.466 156.644,277.472 156.250 C 277.474 156.067,277.412 155.767,277.333 155.583 C 277.246 155.379,277.192 155.347,277.195 155.500 M332.598 156.765 C 332.445 157.375,332.350 157.906,332.388 157.943 C 332.426 157.981,332.582 157.512,332.735 156.902 C 332.889 156.291,332.983 155.761,332.946 155.723 C 332.908 155.686,332.751 156.154,332.598 156.765 M250.857 156.500 C 250.857 156.637,250.921 156.900,251.000 157.083 C 251.090 157.293,251.143 157.324,251.143 157.167 C 251.143 157.029,251.079 156.767,251.000 156.583 C 250.910 156.373,250.857 156.342,250.857 156.500 M251.187 157.583 C 251.180 157.675,251.277 158.125,251.405 158.583 C 251.533 159.042,251.638 159.267,251.639 159.083 C 251.641 158.729,251.211 157.301,251.187 157.583 M303.099 168.099 C 302.854 169.076,302.684 169.906,302.721 169.944 C 302.759 169.981,302.990 169.212,303.235 168.235 C 303.479 167.257,303.649 166.427,303.612 166.390 C 303.575 166.352,303.344 167.121,303.099 168.099 M280.771 169.333 C 280.829 169.654,280.942 170.067,281.022 170.250 C 281.123 170.479,281.135 170.400,281.063 170.000 C 281.004 169.679,280.891 169.267,280.811 169.083 C 280.711 168.855,280.698 168.933,280.771 169.333 M328.950 170.465 C 328.703 171.389,328.506 172.243,328.513 172.364 C 328.520 172.485,328.744 171.796,329.011 170.833 C 329.278 169.871,329.475 169.016,329.449 168.934 C 329.422 168.853,329.198 169.541,328.950 170.465 M254.679 170.813 C 254.662 171.140,255.390 173.749,255.447 173.567 C 255.473 173.484,255.314 172.779,255.092 172.000 C 254.871 171.221,254.685 170.687,254.679 170.813 M328.262 173.095 C 328.201 173.339,328.183 173.571,328.222 173.611 C 328.261 173.650,328.343 173.482,328.405 173.238 C 328.466 172.994,328.484 172.762,328.445 172.723 C 328.406 172.683,328.323 172.851,328.262 173.095 M208.167 185.417 L 208.167 197.500 194.750 197.500 C 187.371 197.500,181.333 197.556,181.333 197.625 C 181.333 197.694,187.408 197.730,194.833 197.706 L 208.333 197.663 208.333 185.498 C 208.333 178.807,208.296 173.333,208.250 173.333 C 208.204 173.333,208.167 178.771,208.167 185.417 M299.595 181.595 C 299.534 181.839,299.516 182.071,299.555 182.111 C 299.594 182.150,299.677 181.982,299.738 181.738 C 299.799 181.494,299.817 181.262,299.778 181.223 C 299.739 181.183,299.657 181.351,299.595 181.595 M298.932 184.099 C 298.687 185.076,298.517 185.906,298.555 185.944 C 298.592 185.981,298.823 185.212,299.068 184.235 C 299.313 183.257,299.483 182.427,299.445 182.390 C 299.408 182.352,299.177 183.121,298.932 184.099 M284.500 183.562 C 284.500 183.853,285.218 186.504,285.280 186.442 C 285.354 186.369,284.690 183.634,284.569 183.514 C 284.531 183.476,284.500 183.497,284.500 183.562 M324.931 185.598 C 324.778 186.209,324.683 186.739,324.721 186.777 C 324.759 186.814,324.915 186.346,325.069 185.735 C 325.222 185.125,325.317 184.594,325.279 184.557 C 325.241 184.519,325.085 184.988,324.931 185.598 M258.695 185.917 C 258.692 186.100,258.755 186.400,258.833 186.583 C 259.016 187.008,259.016 186.570,258.833 186.000 C 258.726 185.665,258.699 185.649,258.695 185.917 M259.110 187.496 C 259.165 187.815,259.310 188.378,259.433 188.746 C 259.645 189.385,259.651 189.390,259.556 188.837 C 259.502 188.518,259.356 187.956,259.234 187.587 C 259.021 186.948,259.016 186.944,259.110 187.496 M324.250 188.167 C 324.187 188.455,324.170 188.725,324.212 188.768 C 324.255 188.810,324.337 188.605,324.396 188.313 C 324.454 188.020,324.471 187.749,324.434 187.711 C 324.396 187.674,324.313 187.879,324.250 188.167 M288.167 197.561 C 288.167 197.852,289.052 201.170,289.113 201.109 C 289.186 201.036,288.357 197.635,288.237 197.514 C 288.198 197.476,288.167 197.497,288.167 197.561 M295.262 198.262 C 295.201 198.506,295.183 198.738,295.222 198.777 C 295.261 198.817,295.343 198.649,295.405 198.405 C 295.466 198.161,295.484 197.929,295.445 197.889 C 295.406 197.850,295.323 198.018,295.262 198.262 M321.262 199.429 C 321.201 199.673,321.183 199.905,321.222 199.944 C 321.261 199.983,321.343 199.816,321.405 199.571 C 321.466 199.327,321.484 199.095,321.445 199.056 C 321.406 199.017,321.323 199.184,321.262 199.429 M294.750 200.167 C 294.687 200.455,294.670 200.725,294.712 200.768 C 294.755 200.810,294.837 200.605,294.896 200.313 C 294.954 200.020,294.971 199.749,294.934 199.711 C 294.896 199.674,294.813 199.879,294.750 200.167 M262.604 200.667 C 262.662 200.987,262.776 201.400,262.856 201.583 C 262.956 201.812,262.968 201.734,262.896 201.333 C 262.838 201.012,262.724 200.600,262.644 200.417 C 262.544 200.188,262.532 200.266,262.604 200.667 M320.762 201.262 C 320.701 201.506,320.683 201.738,320.722 201.777 C 320.761 201.817,320.843 201.649,320.905 201.405 C 320.966 201.161,320.984 200.929,320.945 200.889 C 320.906 200.850,320.823 201.018,320.762 201.262 M289.195 201.500 C 289.203 201.933,289.466 202.644,289.472 202.250 C 289.474 202.067,289.412 201.767,289.333 201.583 C 289.246 201.379,289.192 201.347,289.195 201.500 M263.000 202.062 C 263.000 202.353,263.718 205.004,263.780 204.942 C 263.854 204.869,263.190 202.134,263.069 202.014 C 263.031 201.976,263.000 201.997,263.000 202.062 M317.015 215.432 C 316.816 216.226,316.684 216.906,316.721 216.944 C 316.759 216.981,316.952 216.362,317.152 215.568 C 317.351 214.774,317.483 214.094,317.445 214.056 C 317.408 214.019,317.214 214.638,317.015 215.432 M118.723 216.000 C 118.723 216.688,118.752 216.969,118.788 216.625 C 118.824 216.281,118.824 215.719,118.788 215.375 C 118.752 215.031,118.723 215.313,118.723 216.000 M266.690 216.000 C 266.690 216.137,266.755 216.400,266.833 216.583 C 266.924 216.793,266.977 216.824,266.977 216.667 C 266.977 216.529,266.912 216.267,266.833 216.083 C 266.743 215.873,266.690 215.842,266.690 216.000 M141.872 217.667 C 141.872 217.987,141.906 218.119,141.948 217.958 C 141.990 217.798,141.990 217.535,141.948 217.375 C 141.906 217.215,141.872 217.346,141.872 217.667 M267.277 218.163 C 267.332 218.482,267.477 219.044,267.599 219.413 C 267.812 220.052,267.818 220.056,267.723 219.504 C 267.668 219.185,267.523 218.622,267.401 218.254 C 267.188 217.615,267.182 217.610,267.277 218.163 M141.044 223.211 C 140.840 224.241,140.631 225.271,140.581 225.500 C 140.498 225.884,140.503 225.889,140.651 225.557 C 140.888 225.026,141.537 221.893,141.472 221.595 C 141.442 221.454,141.249 222.181,141.044 223.211 M114.406 225.208 L 113.917 225.750 114.458 225.260 C 114.756 224.991,115.000 224.748,115.000 224.719 C 115.000 224.590,114.862 224.703,114.406 225.208 M112.358 226.577 C 111.255 227.280,111.025 227.510,111.917 227.018 C 112.590 226.646,113.487 226.007,113.333 226.008 C 113.287 226.008,112.848 226.264,112.358 226.577 M312.938 230.772 C 312.687 231.742,312.511 232.567,312.548 232.604 C 312.585 232.641,312.822 231.877,313.074 230.907 C 313.326 229.938,313.502 229.113,313.464 229.075 C 313.427 229.038,313.190 229.801,312.938 230.772 M270.682 231.000 C 270.670 231.287,271.295 233.337,271.317 233.083 C 271.325 232.992,271.188 232.429,271.012 231.833 C 270.836 231.237,270.687 230.862,270.682 231.000 M312.250 233.333 C 312.187 233.621,312.170 233.892,312.212 233.934 C 312.255 233.977,312.337 233.772,312.396 233.479 C 312.454 233.186,312.471 232.916,312.434 232.878 C 312.396 232.840,312.313 233.045,312.250 233.333 M271.362 233.500 C 271.370 233.933,271.633 234.644,271.638 234.250 C 271.641 234.067,271.579 233.767,271.500 233.583 C 271.412 233.379,271.359 233.347,271.362 233.500 M137.283 234.085 C 137.130 234.405,137.040 234.667,137.082 234.667 C 137.196 234.667,137.702 233.646,137.625 233.570 C 137.589 233.534,137.435 233.766,137.283 234.085 M136.500 235.500 C 136.313 235.867,136.197 236.167,136.243 236.167 C 136.289 236.167,136.480 235.867,136.667 235.500 C 136.854 235.133,136.969 234.833,136.923 234.833 C 136.878 234.833,136.687 235.133,136.500 235.500 M133.151 240.458 C 132.416 241.278,132.113 241.667,132.209 241.667 C 132.260 241.667,132.616 241.292,133.000 240.833 C 133.738 239.951,133.847 239.683,133.151 240.458 M309.500 240.667 C 309.313 241.033,309.197 241.333,309.243 241.333 C 309.289 241.333,309.480 241.033,309.667 240.667 C 309.854 240.300,309.969 240.000,309.923 240.000 C 309.878 240.000,309.687 240.300,309.500 240.667 M274.354 241.155 C 274.653 241.698,275.042 242.317,275.218 242.530 L 275.540 242.917 275.294 242.500 C 275.159 242.271,274.805 241.652,274.508 241.125 C 274.211 240.598,273.933 240.167,273.889 240.167 C 273.846 240.167,274.055 240.611,274.354 241.155 M308.750 242.000 C 308.608 242.275,308.529 242.500,308.575 242.500 C 308.621 242.500,308.774 242.275,308.917 242.000 C 309.059 241.725,309.138 241.500,309.092 241.500 C 309.046 241.500,308.892 241.725,308.750 242.000 M129.917 243.944 C 128.480 245.320,128.434 245.379,129.583 244.371 C 130.864 243.247,131.803 242.326,131.654 242.340 C 131.615 242.344,130.833 243.065,129.917 243.944 M158.885 245.083 C 159.117 245.542,159.428 246.067,159.577 246.250 C 159.726 246.433,159.607 246.133,159.313 245.583 C 158.651 244.344,158.310 243.945,158.885 245.083 M304.093 248.302 C 302.516 249.987,302.456 250.070,303.647 248.917 C 304.828 247.773,306.151 246.310,305.972 246.344 C 305.942 246.350,305.096 247.231,304.093 248.302 M279.583 248.167 C 280.220 248.808,280.779 249.333,280.824 249.333 C 280.870 249.333,280.387 248.808,279.750 248.167 C 279.113 247.525,278.555 247.000,278.509 247.000 C 278.463 247.000,278.947 247.525,279.583 248.167 M123.960 248.392 C 122.666 249.134,122.498 249.363,123.750 248.678 C 124.661 248.179,125.184 247.825,124.992 247.838 C 124.950 247.841,124.486 248.090,123.960 248.392 M161.833 249.083 C 162.331 249.588,162.776 250.000,162.822 250.000 C 162.868 250.000,162.498 249.588,162.000 249.083 C 161.502 248.579,161.057 248.167,161.011 248.167 C 160.966 248.167,161.335 248.579,161.833 249.083 M166.333 252.333 C 166.837 252.600,167.325 252.818,167.417 252.818 C 167.508 252.818,167.171 252.600,166.667 252.333 C 166.162 252.067,165.675 251.849,165.583 251.849 C 165.492 251.849,165.829 252.067,166.333 252.333 M284.500 251.916 C 284.500 252.028,286.187 252.869,286.262 252.794 C 286.296 252.759,285.914 252.530,285.412 252.284 C 284.910 252.038,284.500 251.872,284.500 251.916 M298.667 252.417 C 298.071 252.729,297.642 252.987,297.713 252.992 C 297.890 253.003,299.833 252.015,299.833 251.914 C 299.833 251.802,299.872 251.785,298.667 252.417 M113.667 252.513 C 113.071 252.686,112.851 252.790,113.179 252.745 C 113.870 252.649,115.371 252.200,115.000 252.199 C 114.862 252.199,114.263 252.340,113.667 252.513 M105.708 253.782 C 105.869 253.823,106.131 253.823,106.292 253.782 C 106.452 253.740,106.321 253.705,106.000 253.705 C 105.679 253.705,105.548 253.740,105.708 253.782 " stroke="none" fill="#ececec" fill-rule="evenodd"></path><path id="path3" d="M74.221 116.958 C 80.072 116.983,89.597 116.983,95.388 116.958 C 101.179 116.934,96.392 116.914,84.750 116.914 C 73.108 116.914,68.370 116.934,74.221 116.958 M198.791 116.958 L 225.498 117.001 225.542 129.167 L 225.587 141.333 225.585 129.125 L 225.583 116.917 198.833 116.916 L 172.083 116.915 198.791 116.958 M245.083 116.955 C 257.701 117.070,267.294 117.072,267.224 116.958 C 267.182 116.890,261.095 116.851,253.698 116.872 C 246.302 116.894,242.425 116.931,245.083 116.955 M323.125 116.958 C 326.815 116.983,332.852 116.983,336.542 116.958 C 340.231 116.933,337.212 116.913,329.833 116.913 C 322.454 116.913,319.435 116.933,323.125 116.958 M106.875 117.119 C 107.127 117.158,107.540 117.158,107.792 117.119 C 108.044 117.081,107.837 117.050,107.333 117.050 C 106.829 117.050,106.623 117.081,106.875 117.119 M108.542 117.282 C 108.702 117.323,108.965 117.323,109.125 117.282 C 109.285 117.240,109.154 117.205,108.833 117.205 C 108.513 117.205,108.381 117.240,108.542 117.282 M342.595 119.429 C 342.534 119.673,342.516 119.905,342.555 119.944 C 342.594 119.983,342.677 119.816,342.738 119.571 C 342.799 119.327,342.817 119.095,342.778 119.056 C 342.739 119.017,342.657 119.184,342.595 119.429 M241.190 120.500 C 241.190 120.638,241.255 120.900,241.333 121.083 C 241.424 121.293,241.477 121.324,241.477 121.167 C 241.477 121.029,241.412 120.767,241.333 120.583 C 241.243 120.373,241.190 120.342,241.190 120.500 M161.828 121.792 L 160.917 122.750 161.875 121.839 C 162.765 120.993,162.910 120.833,162.786 120.833 C 162.760 120.833,162.329 121.265,161.828 121.792 M130.497 127.375 C 132.120 129.039,132.333 129.242,132.333 129.122 C 132.333 129.097,131.527 128.291,130.542 127.330 L 128.750 125.583 130.497 127.375 M157.039 131.333 C 157.039 131.654,157.073 131.785,157.115 131.625 C 157.157 131.465,157.157 131.202,157.115 131.042 C 157.073 130.881,157.039 131.012,157.039 131.333 M156.916 185.500 C 156.916 214.512,156.935 226.381,156.958 211.875 C 156.982 197.369,156.982 173.631,156.958 159.125 C 156.935 144.619,156.916 156.487,156.916 185.500 M245.437 136.500 C 245.496 136.821,245.609 137.233,245.689 137.417 C 245.789 137.645,245.802 137.567,245.729 137.167 C 245.671 136.846,245.558 136.433,245.478 136.250 C 245.377 136.021,245.365 136.100,245.437 136.500 M138.012 138.083 C 138.012 138.175,138.119 138.438,138.250 138.667 C 138.381 138.896,138.488 139.008,138.488 138.917 C 138.488 138.825,138.381 138.563,138.250 138.333 C 138.119 138.104,138.012 137.992,138.012 138.083 M138.512 139.250 C 138.512 139.342,138.619 139.604,138.750 139.833 C 138.881 140.063,138.988 140.175,138.988 140.083 C 138.988 139.992,138.881 139.729,138.750 139.500 C 138.619 139.271,138.512 139.158,138.512 139.250 M181.413 157.250 C 181.413 165.958,181.434 169.545,181.458 165.221 C 181.483 160.897,181.483 153.772,181.458 149.388 C 181.434 145.004,181.413 148.542,181.413 157.250 M309.595 142.762 C 309.534 143.006,309.516 143.238,309.555 143.277 C 309.594 143.317,309.677 143.149,309.738 142.905 C 309.799 142.661,309.817 142.429,309.778 142.389 C 309.739 142.350,309.657 142.518,309.595 142.762 M89.750 185.750 L 89.750 229.083 97.833 229.086 L 105.917 229.088 97.875 229.042 L 89.834 228.997 89.792 185.707 L 89.749 142.417 89.750 185.750 M105.292 142.618 C 105.498 142.657,105.835 142.657,106.042 142.618 C 106.248 142.578,106.079 142.545,105.667 142.545 C 105.254 142.545,105.085 142.578,105.292 142.618 M142.082 185.583 C 142.082 203.000,142.101 210.100,142.125 201.362 C 142.149 192.623,142.149 178.373,142.125 169.695 C 142.101 161.017,142.082 168.167,142.082 185.583 M118.748 185.833 C 118.748 201.829,118.768 208.373,118.792 200.375 C 118.816 192.377,118.816 179.290,118.792 171.292 C 118.768 163.294,118.748 169.837,118.748 185.833 M305.262 159.429 C 305.201 159.673,305.183 159.905,305.222 159.944 C 305.261 159.983,305.343 159.816,305.405 159.571 C 305.466 159.327,305.484 159.095,305.445 159.056 C 305.406 159.017,305.323 159.184,305.262 159.429 M330.514 164.931 C 330.406 165.358,330.350 165.738,330.388 165.777 C 330.426 165.815,330.545 165.497,330.653 165.069 C 330.760 164.642,330.817 164.262,330.779 164.223 C 330.741 164.185,330.621 164.503,330.514 164.931 M188.221 173.292 C 191.963 173.317,198.038 173.317,201.721 173.292 C 205.404 173.267,202.342 173.246,194.917 173.246 C 187.492 173.246,184.479 173.267,188.221 173.292 M326.262 180.929 C 326.201 181.173,326.183 181.405,326.222 181.444 C 326.261 181.483,326.343 181.316,326.405 181.071 C 326.466 180.827,326.484 180.595,326.445 180.556 C 326.406 180.517,326.323 180.684,326.262 180.929 M286.437 190.667 C 286.496 190.987,286.609 191.400,286.689 191.583 C 286.789 191.812,286.802 191.734,286.729 191.333 C 286.671 191.012,286.558 190.600,286.478 190.417 C 286.377 190.188,286.365 190.266,286.437 190.667 M261.271 196.000 C 261.329 196.321,261.442 196.733,261.522 196.917 C 261.623 197.145,261.635 197.067,261.563 196.667 C 261.504 196.346,261.391 195.933,261.311 195.750 C 261.211 195.521,261.198 195.600,261.271 196.000 M181.413 213.583 C 181.413 222.292,181.434 225.879,181.458 221.554 C 181.483 217.230,181.483 210.105,181.458 205.721 C 181.434 201.337,181.413 204.875,181.413 213.583 M265.357 211.333 C 265.357 211.471,265.421 211.733,265.500 211.917 C 265.590 212.127,265.643 212.158,265.643 212.000 C 265.643 211.862,265.579 211.600,265.500 211.417 C 265.410 211.207,265.357 211.176,265.357 211.333 M314.847 223.931 C 314.740 224.358,314.683 224.738,314.721 224.777 C 314.759 224.815,314.879 224.497,314.986 224.069 C 315.094 223.642,315.150 223.262,315.112 223.223 C 315.074 223.185,314.955 223.503,314.847 223.931 M203.458 229.625 L 225.500 229.668 225.500 241.833 L 225.500 253.999 199.375 254.042 L 173.250 254.085 199.417 254.084 L 225.583 254.083 225.626 241.792 L 225.669 229.500 203.543 229.541 L 181.417 229.582 203.458 229.625 M137.860 233.090 C 137.581 233.703,137.634 233.834,137.936 233.277 C 138.077 233.017,138.162 232.773,138.123 232.735 C 138.085 232.696,137.967 232.857,137.860 233.090 M161.750 249.144 C 162.117 249.538,162.642 250.017,162.917 250.208 C 163.500 250.611,163.424 250.531,162.083 249.326 C 161.235 248.563,161.185 248.535,161.750 249.144 M121.500 249.833 C 120.996 250.100,120.642 250.321,120.714 250.325 C 120.891 250.336,122.500 249.515,122.500 249.414 C 122.500 249.303,122.523 249.293,121.500 249.833 M119.833 250.583 C 119.604 250.714,119.492 250.822,119.583 250.822 C 119.675 250.822,119.938 250.714,120.167 250.583 C 120.396 250.452,120.508 250.345,120.417 250.345 C 120.325 250.345,120.063 250.452,119.833 250.583 M106.794 253.785 C 107.001 253.824,107.301 253.823,107.460 253.781 C 107.620 253.739,107.450 253.707,107.083 253.709 C 106.717 253.711,106.586 253.745,106.794 253.785 M74.125 253.958 C 79.923 253.983,89.410 253.983,95.208 253.958 C 101.006 253.934,96.263 253.914,84.667 253.914 C 73.071 253.914,68.327 253.934,74.125 253.958 M171.542 253.948 C 171.702 253.990,171.965 253.990,172.125 253.948 C 172.285 253.906,172.154 253.872,171.833 253.872 C 171.512 253.872,171.381 253.906,171.542 253.948 M291.381 254.123 C 291.912 254.157,292.737 254.156,293.214 254.123 C 293.692 254.089,293.258 254.062,292.250 254.062 C 291.242 254.063,290.851 254.090,291.381 254.123 " stroke="none" fill="#40807c" fill-rule="evenodd"></path><path id="path4" d="" stroke="none" fill="#400480" fill-rule="evenodd"></path></g></svg>